<svg width="55" height="50" viewBox="0 0 55 50" fill="none" xmlns="http://www.w3.org/2000/svg">
<path d="M54.2944 42.2145L31.976 2.59512C30.0729 -0.865039 24.8826 -0.865039 22.9794 2.59512L0.661114 42.2145C-1.24195 45.6747 1.18019 50 5.15941 50H49.6231C53.7753 49.827 56.1974 45.6747 54.2944 42.2145Z" fill="#E24C4B"/>
<path d="M25.7978 5.18736C26.5667 3.82831 28.5268 3.83515 29.2861 5.19953L50.428 43.1865C51.1714 44.5223 50.2021 46.1644 48.6734 46.1591L6.12539 46.0107C4.59666 46.0053 3.63888 44.3565 4.39162 43.0259L25.7978 5.18736Z" fill="white"/>
<path d="M25.009 23.0909L25.9539 32.125C26.072 33.1477 26.6626 34 27.4894 34C28.1981 34 28.9068 33.1477 29.0249 32.125L29.9698 23.0909C30.206 20.875 29.0249 19 27.4894 19C25.9538 18.9999 24.8908 20.875 25.009 23.0909Z" fill="#3F4448"/>
<path d="M27.4785 40.4844C28.6251 40.4844 29.5547 39.5548 29.5547 38.4082C29.5547 37.2616 28.6251 36.332 27.4785 36.332C26.3319 36.332 25.4023 37.2616 25.4023 38.4082C25.4023 39.5548 26.3319 40.4844 27.4785 40.4844Z" fill="#3F4448"/>
</svg>
